# File created by Blade
# Date/Time:  Thu Jan 22 16:36:26 2015
# Frame Rate: 120.000 fps
#------------------------------------------------------
:FULLY-SPECIFIED
:DEGREES
3053
root 7.173921 13.600596 3.425563 -35.347525 -4.666664 23.375982
RightUpLeg -81.318872 3.691768 -17.790070
RightLeg 118.861633 -0.000000 -0.000000
RightFoot -22.051030 -9.928698 14.046244
RightToeBase -362.086536 -0.000000 0.000000
LeftUpLeg -44.602012 16.969138 -12.312483
LeftLeg 150.052794 -0.000000 -0.000000
LeftFoot -20.308271 -11.192970 -17.126871
LeftToeBase -55.432722 -0.000000 0.000000
Spine 76.812321 -23.490654 -7.767768
RightShoulder 5.437447 -22.022941 -20.065235
RightArm 19.445871 -8.150102 54.733477
RightForeArm 12.515979 -0.000000 19.537884
RightHand 16.281680 -0.000000 -7.052149
RightHandThumb1 -24.326973 -0.000000 -32.862282
LeftShoulder -6.743658 28.303414 15.934621
LeftArm 46.659845 -0.380934 -54.248100
LeftForeArm 7.079725 -0.000000 38.407571
LeftHand -13.125126 -0.000000 3.364265
LeftHandThumb1 -26.253704 0.000000 33.147579
Head 17.187572 35.309276 -8.953549
3054
root 7.260657 13.710661 3.585192 -34.687141 -5.156486 23.295626
RightUpLeg -81.637286 3.451041 -17.727231
RightLeg 118.942031 -0.000000 -0.000000
RightFoot -22.534778 -9.909136 14.103968
RightToeBase -362.120201 -0.000000 0.000000
LeftUpLeg -44.569130 17.193917 -12.405730
LeftLeg 149.855187 -0.000000 -0.000000
LeftFoot -20.179109 -11.233122 -16.895228
LeftToeBase -56.620864 -0.000000 0.000000
Spine 77.372760 -23.571437 -7.595481
RightShoulder 5.913832 -21.458383 -20.136111
RightArm 19.564481 -7.557873 54.223977
RightForeArm 11.640406 -0.000000 18.770618
RightHand 15.160259 -0.000000 -6.353100
RightHandThumb1 -24.326973 -0.000000 -32.862282
LeftShoulder -6.254121 27.766133 16.023248
LeftArm 46.608018 -0.905251 -53.616324
LeftForeArm 7.045627 0.000000 37.474204
LeftHand -12.745558 -0.000000 3.054947
LeftHandThumb1 -26.253704 0.000000 33.147579
Head 15.733584 36.312536 -9.866646
3055
root 7.348056 13.817794 3.752808 -33.983252 -5.581625 23.156340
RightUpLeg -81.966805 3.060879 -17.623447
RightLeg 119.034676 -0.000000 -0.000000
RightFoot -23.072377 -10.092928 14.173549
RightToeBase -361.859310 -0.000000 0.000000
LeftUpLeg -44.543346 17.306651 -12.487770
LeftLeg 149.685313 -0.000000 -0.000000
LeftFoot -20.133582 -11.437121 -16.862661
LeftToeBase -57.427511 -0.000000 0.000000
Spine 77.865003 -23.736934 -7.356378
RightShoulder 6.331469 -21.027036 -20.237409
RightArm 19.787983 -6.979350 53.676970
RightForeArm 10.791204 0.000000 18.027861
RightHand 14.023787 -0.000000 -5.463796
RightHandThumb1 -24.326973 -0.000000 -32.862282
LeftShoulder -5.774630 27.277967 16.013200
LeftArm 46.647146 -1.416085 -52.845225
LeftForeArm 7.156634 0.000000 36.475621
LeftHand -12.322131 -0.000000 2.418027
LeftHandThumb1 -26.253704 0.000000 33.147579
Head 14.186839 37.198822 -10.914971
3056
root 7.454308 13.924814 3.916647 -33.154936 -5.938849 23.116093
RightUpLeg -82.454615 2.564700 -17.664872
RightLeg 119.109879 -0.000000 -0.000000
RightFoot -23.483775 -10.276840 14.144389
RightToeBase -361.661509 -0.000000 0.000000
LeftUpLeg -44.703169 17.407180 -12.901211
LeftLeg 149.509521 -0.000000 -0.000000
LeftFoot -20.187712 -11.441230 -16.819862
LeftToeBase -57.277675 -0.000000 0.000000
Spine 78.165185 -23.929237 -7.127987
RightShoulder 6.739962 -20.577750 -20.397208
RightArm 19.975401 -6.480550 53.155546
RightForeArm 9.953211 0.000000 17.285837
RightHand 12.881173 -0.000000 -4.396211
RightHandThumb1 -24.326973 -0.000000 -32.862282
LeftShoulder -5.265658 26.759420 15.938735
LeftArm 46.670232 -1.901773 -51.962602
LeftForeArm 7.298030 -0.000000 35.462889
LeftHand -11.858785 -0.000000 1.644955
LeftHandThumb1 -26.253704 0.000000 33.147579
Head 12.602142 38.067278 -12.094052
3057
root 7.546814 14.030814 4.081986 -32.439947 -6.383487 23.154211
RightUpLeg -82.868815 2.245010 -17.673236
RightLeg 119.189478 -0.000000 -0.000000
RightFoot -23.969164 -10.567283 14.040972
RightToeBase -361.429596 -0.000000 0.000000
LeftUpLeg -44.747009 17.673215 -13.222891
LeftLeg 149.279690 -0.000000 -0.000000
LeftFoot -20.123066 -11.433604 -16.736537
LeftToeBase -58.170952 -0.000000 0.000000
Spine 78.556292 -23.876634 -6.914044
RightShoulder 7.083125 -20.068162 -20.507670
RightArm 20.142393 -6.336909 52.594352
RightForeArm 9.219757 0.000000 16.564321
RightHand 11.731327 0.000000 -3.571241
RightHandThumb1 -24.326973 -0.000000 -32.862282
LeftShoulder -4.758436 26.180894 15.990503
LeftArm 46.711940 -2.284302 -51.043168
LeftForeArm 7.772708 -0.000000 34.501441
LeftHand -11.698598 0.000000 0.712207
LeftHandThumb1 -26.253704 0.000000 33.147579
Head 10.948438 38.884039 -13.205743
3058
root 7.639412 14.134007 4.245553 -31.673980 -6.792961 23.203423
RightUpLeg -83.332528 1.866341 -17.676268
RightLeg 119.279868 -0.000000 -0.000000
RightFoot -24.520051 -10.583897 14.165457
RightToeBase -361.135708 -0.000000 0.000000
LeftUpLeg -44.834113 17.873380 -13.605782
LeftLeg 149.059445 -0.000000 -0.000000
LeftFoot -20.098495 -11.530197 -16.700501
LeftToeBase -58.763248 -0.000000 0.000000
Spine 78.860753 -23.836836 -6.701062
RightShoulder 7.444192 -19.505167 -20.662870
RightArm 20.249407 -6.479379 52.062344
RightForeArm 8.116863 -0.000000 15.841407
RightHand 10.696264 -0.000000 -2.597929
RightHandThumb1 -24.326973 -0.000000 -32.862282
LeftShoulder -4.309580 25.537559 16.020525
LeftArm 46.748409 -2.635167 -50.150501
LeftForeArm 8.430029 0.000000 33.477723
LeftHand -11.179116 -0.000000 -0.547881
LeftHandThumb1 -26.253704 0.000000 33.147579
Head 9.269285 39.625114 -14.369891
3059
root 7.731257 14.234576 4.412046 -30.909994 -7.180340 23.242562
RightUpLeg -83.792812 1.456313 -17.667275
RightLeg 119.379520 -0.000000 -0.000000
RightFoot -24.974705 -10.459706 14.168307
RightToeBase -360.921198 -0.000000 0.000000
LeftUpLeg -44.953875 18.103469 -13.932428
LeftLeg 148.827832 -0.000000 -0.000000
LeftFoot -19.968113 -11.619429 -16.626710
LeftToeBase -59.574434 -0.000000 0.000000
Spine 79.070577 -23.782169 -6.405060
RightShoulder 7.793038 -19.089337 -20.833091
RightArm 20.320285 -6.547867 51.598442
RightForeArm 7.957853 0.000000 15.096193
RightHand 10.188375 -0.000000 -1.932408
RightHandThumb1 -24.326973 -0.000000 -32.862282
LeftShoulder -3.782298 24.860008 16.163030
LeftArm 46.770685 -2.933992 -49.364731
LeftForeArm 9.470965 -0.000000 32.498208
LeftHand -10.629454 -0.000000 -1.851967
LeftHandThumb1 -26.253704 0.000000 33.147579
Head 7.772969 40.284404 -15.378993
3060
root 7.818335 14.329865 4.580409 -30.176198 -7.498081 23.284062
RightUpLeg -84.221164 1.018700 -17.696183
RightLeg 119.508605 -0.000000 -0.000000
RightFoot -25.288157 -10.201639 14.126373
RightToeBase -360.656143 -0.000000 0.000000
LeftUpLeg -45.004622 18.205498 -14.294305
LeftLeg 148.606578 -0.000000 -0.000000
LeftFoot -19.954871 -11.765778 -16.649501
LeftToeBase -60.237226 -0.000000 0.000000
Spine 79.284809 -23.724861 -6.179034
RightShoulder 8.139994 -18.799952 -21.051194
RightArm 20.346326 -6.529083 51.276607
RightForeArm 8.081610 -0.000000 14.591781
RightHand 9.636680 -0.000000 -1.677381
RightHandThumb1 -24.326973 -0.000000 -32.862282
LeftShoulder -3.376691 24.388554 16.348862
LeftArm 46.986710 -3.308877 -48.692094
LeftForeArm 10.922894 -0.000000 31.588429
LeftHand -9.983826 0.000000 -2.699204
LeftHandThumb1 -26.253704 0.000000 33.147579
Head 6.326650 40.908127 -16.304382
3061
root 7.897576 14.417487 4.748499 -29.434928 -7.846312 23.304110
RightUpLeg -84.676325 0.666395 -17.711218
RightLeg 119.627951 -0.000000 -0.000000
RightFoot -25.487694 -9.914221 14.070542
RightToeBase -360.510288 -0.000000 0.000000
LeftUpLeg -45.080461 18.312563 -14.574733
LeftLeg 148.404771 -0.000000 -0.000000
LeftFoot -19.867838 -11.939585 -16.576445
LeftToeBase -60.877729 -0.000000 0.000000
Spine 79.441023 -23.634617 -5.907736
RightShoulder 8.387738 -18.537094 -21.294208
RightArm 20.312977 -6.444673 51.074169
RightForeArm 8.069832 -0.000000 14.329322
RightHand 9.264264 -0.000000 -1.254692
RightHandThumb1 -24.326973 -0.000000 -32.862282
LeftShoulder -2.995274 23.742202 16.542678
LeftArm 46.975284 -3.588458 -48.097810
LeftForeArm 12.815573 -0.000000 30.941240
LeftHand -9.525650 0.000000 -3.796581
LeftHandThumb1 -26.253704 0.000000 33.147579
Head 4.942036 41.462528 -17.236224
3062
root 7.965440 14.497763 4.924258 -28.712427 -8.186074 23.219340
RightUpLeg -85.083162 0.290792 -17.615653
RightLeg 119.768581 -0.000000 -0.000000
RightFoot -25.710821 -9.579620 14.172840
RightToeBase -360.476039 -0.000000 0.000000
LeftUpLeg -45.128123 18.448138 -14.626456
LeftLeg 148.242379 -0.000000 -0.000000
LeftFoot -19.626569 -12.196247 -16.430853
LeftToeBase -61.754222 -0.000000 0.000000
Spine 79.614723 -23.606598 -5.630131
RightShoulder 8.577857 -18.287095 -21.545906
RightArm 20.226597 -6.255880 50.937187
RightForeArm 8.237325 -0.000000 14.284767
RightHand 9.140743 -0.000000 -0.908568
RightHandThumb1 -24.326973 -0.000000 -32.862282
LeftShoulder -2.771839 23.251072 16.785138
LeftArm 47.112159 -3.853300 -47.685231
LeftForeArm 14.933773 -0.000000 30.345056
LeftHand -9.028920 -0.000000 -4.929895
LeftHandThumb1 -26.253704 0.000000 33.147579
Head 3.651308 42.036318 -18.103762
3063
root 8.017332 14.567270 5.098823 -27.999498 -8.583615 23.174748
RightUpLeg -85.537571 0.074603 -17.592107
RightLeg 119.926778 -0.000000 -0.000000
RightFoot -25.911958 -9.366884 14.204867
RightToeBase -360.114575 -0.000000 0.000000
LeftUpLeg -45.210144 18.627955 -14.626746
LeftLeg 148.117493 -0.000000 -0.000000
LeftFoot -19.303267 -12.376623 -16.337789
LeftToeBase -62.771279 -0.000000 0.000000
Spine 79.704118 -23.439846 -5.311085
RightShoulder 8.566487 -18.172703 -21.746197
RightArm 20.270120 -5.853618 50.934757
RightForeArm 8.087725 -0.000000 14.331787
RightHand 9.031395 -0.000000 -0.553963
RightHandThumb1 -24.326973 -0.000000 -32.862282
LeftShoulder -2.504492 22.824883 17.056416
LeftArm 47.202178 -4.232921 -47.344827
LeftForeArm 16.913359 -0.000000 29.878626
LeftHand -8.279008 -0.000000 -6.076954
LeftHandThumb1 -26.253704 0.000000 33.147579
Head 2.457751 42.408817 -18.884610
3064
root 8.063271 14.638838 5.272732 -27.302119 -8.929823 23.026766
RightUpLeg -85.903679 -0.195162 -17.506577
RightLeg 120.079931 -0.000000 -0.000000
RightFoot -26.143079 -9.340276 14.249860
RightToeBase -359.917997 -0.000000 -0.000000
LeftUpLeg -45.173866 18.651835 -14.490328
LeftLeg 147.987797 -0.000000 -0.000000
LeftFoot -19.127223 -12.845553 -16.187353
LeftToeBase -63.120631 -0.000000 0.000000
Spine 79.897335 -23.409025 -5.114752
RightShoulder 8.572099 -17.992208 -21.994026
RightArm 20.364668 -5.395676 50.926371
RightForeArm 7.798600 -0.000000 14.424496
RightHand 8.947864 -0.000000 0.036125
RightHandThumb1 -24.326973 -0.000000 -32.862282
LeftShoulder -2.468555 22.486369 17.219581
LeftArm 47.293433 -4.643267 -47.042095
LeftForeArm 18.523423 0.000000 29.497797
LeftHand -7.847111 -0.000000 -6.642817
LeftHandThumb1 -26.253704 0.000000 33.147579
Head 1.282709 43.030022 -19.740710
